<?xml version="1.0" standalone="no"?>
<!DOCTYPE svg PUBLIC "-//W3C//DTD SVG 20010904//EN"
 "http://www.w3.org/TR/2001/REC-SVG-20010904/DTD/svg10.dtd">
<svg version="1.0" xmlns="http://www.w3.org/2000/svg"
 width="512.000000pt" height="512.000000pt" viewBox="0 0 512.000000 512.000000"
 preserveAspectRatio="xMidYMid meet">

<g transform="translate(0.000000,512.000000) scale(0.100000,-0.100000)"
fill="#000000" stroke="none">
<path d="M1150 3183 l0 -1388 247 245 c136 135 252 252 258 260 6 10 12 308
15 880 l5 865 868 5 867 5 166 165 c91 91 207 207 257 258 l91 92 -1387 0
-1387 0 0 -1387z"/>
<path d="M4038 3933 l-258 -258 0 -868 0 -867 -869 0 -869 0 -451 -452 -451
-453 0 -365 0 -365 555 555 555 555 1023 2 1022 3 3 696 c1 382 1 1006 0 1385
l-3 689 -257 -257z"/>
<path d="M2200 2988 l0 -518 522 0 523 0 -345 347 c-301 303 -337 341 -207
220 l29 -26 39 37 c21 20 39 43 39 50 0 7 5 10 10 7 6 -3 10 -1 10 4 0 6 7 11
15 11 8 0 15 7 15 15 0 8 7 15 15 15 8 0 15 9 15 20 0 12 9 24 23 29 25 10 51
37 60 64 4 9 16 17 27 17 12 0 18 5 15 10 -3 6 1 13 11 17 20 7 154 140 154
152 0 5 7 12 16 15 8 3 13 10 10 15 -4 5 0 12 6 14 7 3 -194 5 -447 4 l-460
-2 415 -5 415 -5 -445 -3 c-292 -1 -440 -6 -430 -12 8 -5 10 -10 4 -10 -18 0
-24 12 -14 26 8 9 4 12 -15 10 l-25 -1 0 -517z m120 438 c0 -10 -33 1 -47 16
-16 17 -15 17 15 2 18 -8 32 -17 32 -18z m34 -41 c4 -13 2 -14 -14 -5 -23 13
-26 20 -6 20 8 0 16 -7 20 -15z m78 -75 c6 0 8 -3 5 -7 -4 -3 -1 -13 5 -22 7
-9 -2 -2 -20 14 -17 17 -32 34 -32 38 0 5 7 1 16 -7 8 -9 20 -16 26 -16z m112
-126 c7 -19 2 -18 -19 6 -16 17 -16 20 -3 15 9 -4 19 -13 22 -21z"/>
</g>
</svg>
